<?xml version="1.0" encoding="utf-8"?>
<!-- Generator: Adobe Illustrator 17.0.0, SVG Export Plug-In . SVG Version: 6.00 Build 0)  -->
<!DOCTYPE svg PUBLIC "-//W3C//DTD SVG 1.1//EN" "http://www.w3.org/Graphics/SVG/1.1/DTD/svg11.dtd">
<svg version="1.1" id="Layer_1" xmlns="http://www.w3.org/2000/svg" xmlns:xlink="http://www.w3.org/1999/xlink" x="0px" y="0px"
	 width="175.333px" height="177.333px" viewBox="0 0 175.333 177.333" enable-background="new 0 0 175.333 177.333"
	 xml:space="preserve">
<g>
	<path d="M12.3,94.845c0-3.2,0-6.4,0-9.6c0.23-1.876,0.425-3.756,0.696-5.626c2.418-16.74,9.476-31.226,21.326-43.293
		C45.82,24.618,59.681,17.272,75.871,14.427c2.792-0.491,5.617-0.791,8.427-1.18c3.2,0,6.4,0,9.6,0
		c2.615,0.341,5.245,0.594,7.843,1.038c14.37,2.459,27.094,8.454,38.003,18.124c13.428,11.903,21.82,26.703,24.974,44.405
		c0.497,2.792,0.791,5.62,1.179,8.432c0,3.2,0,6.4,0,9.6c-0.085,0.386-0.219,0.767-0.249,1.157
		c-0.9,11.796-4.271,22.847-10.411,32.948c-12.184,20.042-29.816,32.364-52.915,36.718c-2.783,0.524-5.614,0.79-8.423,1.176
		c-3.2,0-6.4,0-9.6,0c-0.333-0.082-0.663-0.212-1.001-0.238c-15.625-1.216-29.63-6.647-41.848-16.436
		c-15.135-12.125-24.511-27.774-27.974-46.893C12.971,100.486,12.686,97.657,12.3,94.845z M58.44,87.31
		c1.787-15.942,14.005-26.484,27.558-27.819c7.144-0.704,13.832,0.834,19.844,4.832c8.229,5.472,12.745,13.263,13.916,22.959
		c13.731,0,27.307,0,40.885,0c-1.046-37.128-32.704-70.646-74.662-68.803C44.825,20.285,18.004,54.72,17.623,87.31
		C31.202,87.31,44.78,87.31,58.44,87.31z M17.522,92.775c1.328,39.477,35.844,72.598,78.318,68.593
		c40.229-3.793,64.567-38.301,64.697-68.591c-13.578,0-27.157,0-40.727,0c-1.76,16.624-15.648,27.948-30.649,27.991
		c-14.762,0.042-29.013-11.102-30.795-27.993C44.795,92.775,31.218,92.775,17.522,92.775z M114.665,90.048
		c0.002-14.145-11.379-25.548-25.525-25.573c-14.138-0.025-25.566,11.348-25.61,25.488c-0.044,14.197,11.407,25.672,25.6,25.652
		C103.27,115.595,114.664,104.188,114.665,90.048z"/>
	<path fill="#CECECE" d="M58.44,87.31c-13.66,0-27.238,0-40.817,0c0.381-32.59,27.202-67.025,68.358-68.832
		c41.958-1.842,73.616,31.675,74.662,68.803c-13.578,0-27.154,0-40.885,0c-1.171-9.696-5.687-17.487-13.916-22.959
		c-6.012-3.998-12.7-5.535-19.844-4.832C72.445,60.825,60.227,71.367,58.44,87.31z"/>
	<path fill="#FFFFFF" d="M17.522,92.775c13.695,0,27.273,0,40.844,0c1.782,16.891,16.033,28.035,30.795,27.993
		c15.002-0.043,28.89-11.367,30.649-27.991c13.57,0,27.148,0,40.727,0c-0.13,30.29-24.468,64.798-64.697,68.591
		C53.366,165.373,18.85,132.252,17.522,92.775z"/>
	<path d="M109.546,90.004c0.018,11.35-9.103,20.491-20.447,20.492c-11.344,0.001-20.465-9.138-20.45-20.489
		c0.015-11.285,9.09-20.378,20.372-20.413C100.378,69.559,109.529,78.659,109.546,90.004z M104.427,90.112
		c0.031-8.502-6.774-15.368-15.261-15.397c-8.506-0.029-15.369,6.772-15.398,15.259c-0.029,8.501,6.777,15.369,15.26,15.4
		C97.527,105.405,104.396,98.597,104.427,90.112z"/>
</g>
</svg>
